# xmcd
#
# Track frame offsets: 
#        150
#        12319
#        27486
#        43773
#        58569
#        80328
#        93476
#        103037
#        117943
#        136659
#        152879
#        167337
#        180038
#        205304
#        225964
#        248957
#        259859
#        272829
#        286445
#        300493
#        311828
#        326348
#        344533
#
# Disc length: 4782 seconds
#
# Revision: 0
# Processed by: cddbd v1.5.2PL0 Copyright (c) Steve Scherf et al.
# Submitted via: ExactAudioCopyFreeDBPlugin 1.0
#
DISCID=3612ac17
DTITLE=James Last - The very best of
DYEAR=2019
DGENRE=No, thanks.
TTITLE0=On The Road Again
TTITLE1=Orange Blossom Special
TTITLE2=La Bamba
TTITLE3=Mambo Nr. 5
TTITLE4=Summer In Dublin
TTITLE5=Ril Mhor Bhaile An Chalaidh
TTITLE6=Hora Staccato
TTITLE7=Stories Of A Small Town
TTITLE8=Yosaku
TTITLE9=Drunken Tango
TTITLE10=Säbeltanz
TTITLE11=Last Tango In Paris
TTITLE12=I Left My Heart In San Fransisco
TTITLE13=Granada
TTITLE14=La Malaguena Salerosa
TTITLE15=Oh Waterlooplein
TTITLE16=Tulpen Uit Amsterdam
TTITLE17=Saute-Mouton
TTITLE18=Tender Images (Theme From 'Terre Humaine')
TTITLE19=Jerusalem
TTITLE20=Vieni, Vieni
TTITLE21=Canto Dei Gondolieri
TTITLE22=Missing
EXTD=
EXTT0=
EXTT1=
EXTT2=
EXTT3=
EXTT4=
EXTT5=
EXTT6=
EXTT7=
EXTT8=
EXTT9=
EXTT10=
EXTT11=
EXTT12=
EXTT13=
EXTT14=
EXTT15=
EXTT16=
EXTT17=
EXTT18=
EXTT19=
EXTT20=
EXTT21=
EXTT22=
PLAYORDER=
